<?xml version="1.0" encoding="utf-8"?>
<!-- Generator: Adobe Illustrator 16.0.0, SVG Export Plug-In . SVG Version: 6.00 Build 0)  -->
<!DOCTYPE svg PUBLIC "-//W3C//DTD SVG 1.1//EN" "http://www.w3.org/Graphics/SVG/1.1/DTD/svg11.dtd">
<svg version="1.1" id="Layer_1" xmlns="http://www.w3.org/2000/svg" xmlns:xlink="http://www.w3.org/1999/xlink" x="0px" y="0px"
	 width="147.396px" height="153.126px" viewBox="0 0 147.396 153.126" enable-background="new 0 0 147.396 153.126"
	 xml:space="preserve">
<g>
	<path fill="#2F57B2" d="M45.761,27.481C36.662,31.9,27.722,37.521,29.353,47.264c1.252,7.483,8.778,12.996,2.161,20.733
		c-4.688,5.482-6.144,12.632-2.161,18.051c6.098,8.296,17.766-3.049,25.254-4.494c5.225-1.008,18.208,4.296,21.396-2.52
		c1.162-2.483-2.033-5.242-2.878-7.188c-2.494-5.745-2.539-9.384-2.835-15.717c-0.385-8.227-5.024-10.845-9.941-16.792
		C57.796,36.247,55.54,20.888,45.761,27.481"/>
	<path fill="#F4AE5B" d="M79.004,62.45c-10.514-1.157-21.966,2.383-25.156,12.254c-4.49,13.892,9.406,18.442,12.447,30.462
		c2.455,9.705,2.593,18.495,8.613,27.339c8.869,13.027,16.378,5.313,29.744,3.789c8.965-1.021,19.522,0.482,23.336-8.472
		c3.788-8.9-0.836-19.079-4.301-27.259c-3.826-9.033-7.847-21.789-16.752-28.259C98.084,65.876,88.489,63.483,79.004,62.45"/>
	<path fill="#DDC485" d="M89.201,11.713c8.915-0.641,20.021,0.957,23.648,8.415c3.668,7.55-5.534,26.95,3.798,31.724
		c7.236,3.702,19.386,1.197,20.859,11.11c1.521,10.233-12.048,28.559-19.974,36.752c-10.566,10.926-13.077-4.965-13.225-11.73
		c-0.24-11.017,5.373-24.772-2.73-33.771C92.518,44.155,74.743,43.849,70.116,29.9C66.506,19.024,76.27,9.818,89.201,11.713z"/>
	<path fill="#2D99B5" d="M75.935,10.806C65.193,14.827,52.52,20.995,46.347,30.177C34.487,47.823,58.37,55.015,72.345,57.469
		c22.311,3.917,11.662,36.115,7.205,50.267c-4.266,13.539-5.083,36.826,19.358,28.394c25.908-8.938,23.487-40.289,17.619-56.782
		c-5.536-15.558-17.987-22.009-35.032-26.422c-19.562-5.065,1.323-9.362,9.342-14.681C103.786,29.657,90.377,7.257,75.935,10.806z"
		/>
	<path fill="#F27F5C" d="M84.585,49.619c-2.335-2.896-6.387-8.686-11.486-6.167c-4.064,2.006-7.079,6.417-10.443,9.237
		c-4.138,3.471-6.081,6.022-5.411,10.866c0.577,4.176,2.759,8.948,6.442,11.556c2.573,1.821,7.818,4.327,11.542,3.885
		c4.991-0.593,9.987-5.312,12.224-9.021c5.61-9.301,0.979-17.824-6.011-24.109"/>
</g>
<g>
	<g>
		<path fill="#2F57B2" d="M74.296,11.205C63.28,10.95,51.667,11.862,47.142,21.506c-3.477,7.408-0.021,15.971-10.824,19.907
			c-7.654,2.789-13.391,8.618-13.106,15.429c0.436,10.429,18.068,5.583,25.781,7.79c5.383,1.539,13.938,12.482,21.048,7.772
			c2.591-1.716,1.383-5.732,1.813-7.904c1.272-6.407,3.477-9.743,7.114-15.654c4.725-7.676,2.115-12.245,1.304-19.977
			C79.852,24.855,87.273,9.799,74.296,11.205"/>
		<path fill="#F4AE5B" d="M51.992,53.583c-10.534-3.42-23.717-2.333-30.555,6.877c-9.625,12.963,3.221,20.514,2.104,33.218
			c-0.903,10.26-3.892,19.103-0.776,29.265c4.591,14.968,15.159,8.85,29.616,10.194c9.697,0.904,20.152,4.682,27.313-3.477
			c7.115-8.108,5.928-19.309,5.235-28.255c-0.765-9.881-0.405-23.533-7.371-31.936C70.635,61.122,61.498,56.659,51.992,53.583"/>
		<path fill="#DDC485" d="M116.558,27.271c8.517,3.611,17.651,10.294,16.353,18.796c-1.315,8.604-21.67,21.949-16.113,30.689
			c4.308,6.778,16.923,10.212,12.149,19.939c-4.928,10.038-28.598,20.35-40.875,24.085c-16.368,4.981-8.851-10.677-4.811-16.91
			c6.579-10.151,20.181-20.042,18.35-32.053C99.563,58.39,83.557,49.746,87.947,34.86C91.37,23.252,105.945,19.46,116.558,27.271z"
			/>
		<path fill="#2D99B5" d="M112.649,13.872c-12.267-1.392-27.619-1.736-38.908,3.725c-21.693,10.496-4.372,28.287,6.847,37.101
			c17.91,14.067-11.659,38.392-24.451,49.188c-12.24,10.328-27.353,31.16,0.117,34.978c29.118,4.051,46.259-25.652,51.088-43.44
			c4.555-16.78-2.808-28.516-15.615-40.56c-14.697-13.819,6.982-7.906,17.569-8.978C126.394,44.155,127.997,17.436,112.649,13.872z"
			/>
		<path fill="#F27F5C" d="M96.009,49.643c-0.341-3.736-0.459-10.917-6.659-11.023c-4.941-0.084-10.409,2.515-15.214,3.501
			c-5.911,1.215-9.255,2.625-11.635,7.354c-2.051,4.076-3.007,9.452-1.261,13.559c1.221,2.871,4.454,7.621,8.119,8.971
			c4.913,1.808,12.377-0.14,16.704-2.467c10.851-5.833,11.889-15.777,9.399-24.794"/>
	</g>
	<g>
		<path fill="#2F57B2" d="M75.465,109.241c8.434-1.026,17.153-3.01,19.2-10.863c1.573-6.032-2.306-12.176,5.356-16.374
			c5.43-2.974,8.955-8.053,7.748-13.213c-1.848-7.901-14.583-2.252-20.784-3.079c-4.326-0.576-12.438-7.969-17.173-3.591
			c-1.726,1.595-0.221,4.523-0.234,6.226c-0.038,5.025-1.233,7.812-3.146,12.721c-2.486,6.374,0.167,9.568,1.909,15.37
			C69.245,99.453,65.777,111.751,75.465,109.241"/>
		<path fill="#F4AE5B" d="M82.966,74.952c8.528,1.439,18.417-0.851,22.291-8.63c5.452-10.948-5.438-15.28-6.433-25.086
			c-0.804-7.92,0.189-14.993-3.664-22.392c-5.675-10.9-12.84-5.065-24.055-4.488c-7.523,0.387-16.042-1.333-20.313,5.679
			c-4.245,6.969-1.712,15.375,0.117,22.117c2.02,7.446,3.729,17.893,10.261,23.524C67.66,71.272,75.274,73.661,82.966,74.952"/>
		<path fill="#DDC485" d="M41.377,104.104c-7.017-1.808-14.95-5.889-15.196-12.513c-0.248-6.705,13.326-19.133,7.82-25.179
			c-4.27-4.688-14.384-5.908-12.159-13.851c2.297-8.198,18.839-18.682,27.654-22.891c11.752-5.611,8.299,7.158,6.126,12.357
			c-3.54,8.467-12.468,17.514-9.327,26.466c3.512,10.008,16.969,14.822,15.787,26.655C61.162,104.375,50.603,108.881,41.377,104.104
			z"/>
		<path fill="#2D99B5" d="M46.813,114.187c9.552-0.3,21.304-1.739,29.115-7.153c15.009-10.405-0.779-22.046-10.613-27.52
			c-15.697-8.738,3.305-30.556,11.487-40.203c7.829-9.229,16.319-26.784-5.175-26.649c-22.783,0.142-31.53,24.685-32.625,38.778
			C37.969,64.735,45.288,72.864,56.8,80.623c13.212,8.905-4.172,6.801-12.086,8.792C31.934,92.628,34.596,113.173,46.813,114.187z"
			/>
		<path fill="#F27F5C" d="M53.326,82.348c0.804,2.812,1.937,8.272,6.679,7.666c3.778-0.483,7.567-3.071,11.087-4.357
			c4.329-1.581,6.673-3.026,7.799-6.894c0.971-3.335,0.919-7.538-1.009-10.475c-1.35-2.053-4.503-5.316-7.493-5.938
			c-4.007-0.833-9.414,1.479-12.374,3.732c-7.422,5.649-6.769,13.343-3.56,19.94"/>
	</g>
</g>
</svg>
