<?xml version="1.0" encoding="utf-8"?>
<!-- Generator: Adobe Illustrator 16.0.0, SVG Export Plug-In . SVG Version: 6.00 Build 0)  -->
<!DOCTYPE svg PUBLIC "-//W3C//DTD SVG 1.1//EN" "http://www.w3.org/Graphics/SVG/1.1/DTD/svg11.dtd">
<svg version="1.1" id="Layer_1" xmlns="http://www.w3.org/2000/svg" xmlns:xlink="http://www.w3.org/1999/xlink" x="0px" y="0px"
	 width="187.25px" height="176.992px" viewBox="0 0 187.25 176.992" enable-background="new 0 0 187.25 176.992"
	 xml:space="preserve">
<g>
	<path fill="#EFDF48" d="M149.141,90.1c-18.344-29.097-53.344-17.097-80.343-15.097c-28,1-22-41-11-61c-1,6,3,14,9,14
		c31-1,64-6,90,13c-10-1-23,4-20,16S146.797,78.003,149.141,90.1L149.141,90.1z"/>
	<path fill="#2C99DD" d="M95.495,155.071c1.303-5.067,0.303-11.067-3.697-13.067c-40-16-79-50-68-97c3,7,9,19,16,14
		c33-23,66-45,105-32c-20-1-43,4-54,23c-4,7-5,17,1,21C120.797,93.003,127.797,134.003,95.495,155.071L95.495,155.071z"/>
</g>
<g>
	<path fill="#F97C15" d="M63.33,40.894c-7.532,18.109-2.532,44.109,17.468,52.109c9,3,20,1,28,7c24,21,3,55-18,69c3-7,10-15,3-20
		c-22-18-53-21-68-47c8,0,15-4,18-11C49.798,74.003,50.798,55.003,63.33,40.894L63.33,40.894z"/>
	<path fill="#F71697" d="M163.304,55.178c-4.507-0.175-11.507,0.825-11.507,4.825c-4,39,6,83-30,110c5-11,13-33-2-35
		c-30-5-62,7-87-15c17,6,49,6,47-16c-2-31,14-64,48-61c8,1,15,2,22,5C154.797,50.003,158.797,53.003,163.304,55.178L163.304,55.178z
		"/>
</g>
</svg>
