<?xml version="1.0" encoding="utf-8"?>
<!-- Generator: Adobe Illustrator 16.0.0, SVG Export Plug-In . SVG Version: 6.00 Build 0)  -->
<!DOCTYPE svg PUBLIC "-//W3C//DTD SVG 1.1//EN" "http://www.w3.org/Graphics/SVG/1.1/DTD/svg11.dtd">
<svg version="1.1" id="Layer_1" xmlns="http://www.w3.org/2000/svg" xmlns:xlink="http://www.w3.org/1999/xlink" x="0px" y="0px"
	 width="243.125px" height="229.807px" viewBox="0 0 243.125 229.807" enable-background="new 0 0 243.125 229.807"
	 xml:space="preserve">
<g>
	<path fill="#7E1FB2" d="M96.967,35.086c-13.893-0.322-28.538,0.831-34.245,12.993c-4.385,9.342-0.027,20.141-13.651,25.104
		C39.418,76.7,32.184,84.052,32.542,92.641c0.55,13.153,22.786,7.042,32.513,9.825c6.79,1.94,17.58,15.743,26.546,9.802
		c3.267-2.165,1.744-7.229,2.286-9.968c1.605-8.081,4.384-12.287,8.972-19.742c5.959-9.681,2.669-15.442,1.645-25.194
		C103.973,52.3,113.332,33.313,96.967,35.086"/>
	<path fill="#FF765B" d="M68.839,88.53c-13.285-4.313-29.911-2.942-38.534,8.673c-12.138,16.348,4.062,25.873,2.654,41.894
		c-1.139,12.938-4.909,24.092-0.979,36.908c5.79,18.875,19.118,11.16,37.35,12.854c12.229,1.139,25.416,5.904,34.443-4.385
		c8.974-10.225,7.478-24.353,6.603-35.633c-0.964-12.461-0.51-29.679-9.296-40.278C92.351,98.038,80.827,92.41,68.839,88.53"/>
	<path fill="#FF8C85" d="M150.266,55.349c10.743,4.554,22.259,12.982,20.622,23.705c-1.656,10.85-27.329,27.68-20.318,38.703
		c5.433,8.55,21.343,12.879,15.321,25.146c-6.216,12.66-36.067,25.664-51.55,30.375c-20.642,6.281-11.164-13.466-6.067-21.325
		c8.296-12.805,25.449-25.278,23.141-40.426c-2.581-16.935-22.769-27.835-17.23-46.608C118.497,50.28,136.881,45.496,150.266,55.349
		z"/>
	<path fill="#7C61B5" d="M145.336,38.449c-15.471-1.755-34.831-2.189-49.069,4.698c-27.358,13.237-5.514,35.674,8.634,46.79
		c22.587,17.74-14.703,48.418-30.836,62.031c-15.436,13.027-34.495,39.299,0.147,44.114c36.724,5.109,58.338-32.35,64.427-54.783
		c5.747-21.161-3.539-35.965-19.689-51.152c-18.536-17.429,8.803-9.972,22.155-11.323C162.67,76.642,164.689,42.944,145.336,38.449z
		"/>
	<path fill="#FF475C" d="M124.352,83.562c-0.433-4.711-0.58-13.768-8.4-13.902c-6.228-0.105-13.126,3.172-19.185,4.416
		c-7.455,1.532-11.672,3.311-14.674,9.275c-2.586,5.14-3.792,11.919-1.59,17.099c1.54,3.621,5.616,9.611,10.239,11.313
		c6.196,2.281,15.608-0.177,21.064-3.111c13.687-7.356,14.997-19.896,11.855-31.268"/>
</g>
<g>
	<path fill="#2F57B2" d="M153.836,176.926c10.638-1.293,21.634-3.796,24.213-13.7c1.984-7.605-2.907-15.355,6.756-20.649
		c6.849-3.751,11.293-10.156,9.769-16.662c-2.329-9.965-18.391-2.841-26.209-3.883c-5.457-0.727-15.686-10.052-21.658-4.53
		c-2.176,2.013-0.279,5.704-0.293,7.854c-0.049,6.335-1.555,9.851-3.969,16.041c-3.135,8.04,0.21,12.066,2.405,19.385
		C145.994,164.583,141.619,180.092,153.836,176.926"/>
	<path fill="#F4AE5B" d="M163.297,133.686c10.755,1.812,23.229-1.076,28.112-10.887c6.875-13.805-6.858-19.269-8.113-31.637
		c-1.015-9.988,0.238-18.908-4.621-28.239c-7.156-13.748-16.192-6.388-30.336-5.661c-9.486,0.489-20.231-1.681-25.617,7.162
		c-5.352,8.789-2.157,19.39,0.148,27.894c2.546,9.39,4.703,22.565,12.94,29.666C143.993,129.044,153.596,132.056,163.297,133.686"/>
	<path fill="#DDC485" d="M110.85,170.447c-8.852-2.278-18.856-7.427-19.166-15.778c-0.313-8.457,16.807-24.132,9.861-31.755
		c-5.384-5.914-18.14-7.452-15.334-17.47c2.897-10.34,23.757-23.562,34.874-28.87c14.825-7.076,10.468,9.027,7.728,15.583
		c-4.462,10.678-15.725,22.089-11.761,33.378c4.428,12.622,21.399,18.693,19.909,33.615
		C135.799,170.789,122.482,176.472,110.85,170.447z"/>
	<path fill="#2D99B5" d="M117.705,183.165c12.046-0.38,26.864-2.194,36.717-9.022c18.929-13.122-0.983-27.804-13.385-34.706
		c-19.795-11.02,4.167-38.536,14.487-50.702c9.871-11.639,20.579-33.778-6.525-33.608c-28.733,0.18-39.766,31.131-41.146,48.905
		c-1.303,16.768,7.927,27.019,22.444,36.805c16.663,11.229-5.261,8.577-15.241,11.086
		C98.938,155.976,102.297,181.886,117.705,183.165z"/>
	<path fill="#F27F5C" d="M125.916,143.011c1.015,3.546,2.445,10.435,8.424,9.668c4.765-0.608,9.543-3.872,13.981-5.495
		c5.46-1.993,8.418-3.816,9.837-8.693c1.225-4.206,1.159-9.507-1.273-13.212c-1.702-2.59-5.679-6.704-9.449-7.489
		c-5.053-1.051-11.871,1.865-15.604,4.708c-9.359,7.122-8.535,16.825-4.488,25.146"/>
</g>
<g>
	<path fill="#2FA9AF" d="M55.945,132.813c-1.271,14.864-1.014,30.63,11.637,37.556c9.715,5.32,21.576,1.37,25.984,16.298
		c3.124,10.576,10.52,18.817,19.745,19.006c14.129,0.289,9.062-23.942,12.693-34.178c2.531-7.145,18.037-17.785,12.271-27.788
		c-2.103-3.644-7.629-2.35-10.527-3.112c-8.549-2.259-12.872-5.515-20.551-10.929c-9.975-7.028-16.367-3.887-26.883-3.44
		C74.855,126.455,55.136,115.161,55.945,132.813"/>
	<path fill="#F4FF58" d="M111.326,166.512c-5.506,13.944-5.146,31.849,6.723,41.861c16.706,14.094,27.99-2.627,45.061-0.05
		c13.786,2.082,25.481,6.864,39.475,3.508c20.609-4.943,13.231-19.737,16.263-39.155c2.035-13.026,8.019-26.839-2.402-37.196
		c-10.354-10.294-25.592-9.632-37.733-9.446c-13.415,0.2-31.832-1.434-43.774,7.273C123.08,141.955,116.283,153.927,111.326,166.512
		"/>
	<path fill="#DDFF82" d="M81.207,77.063c5.595-11.207,15.391-22.982,26.769-20.516c11.517,2.498,27.833,31.125,40.109,24.349
		c9.522-5.248,15.223-22.007,27.962-14.737c13.15,7.502,25.092,40.351,29.105,57.253c5.354,22.534-15.17,11.064-23.251,5.08
		c-13.163-9.742-25.385-28.951-41.766-27.488c-18.316,1.635-31.34,22.538-51.083,15.354C73.658,110.759,69.758,90.746,81.207,77.063
		z"/>
	<path fill="#2DEBB2" d="M62.772,81.218c-2.912,16.457-4.667,37.17,1.762,52.884c12.358,30.193,37.853,8.285,50.703-6.13
		c20.512-23.017,50.894,18.979,64.402,37.171c12.927,17.407,39.803,39.576,47.27,2.782c7.922-39.002-30.77-64.659-54.396-72.677
		c-22.287-7.568-38.766,1.394-56.113,17.686c-19.909,18.697-10.097-10.097-10.654-24.491
		C104.845,65.192,68.879,60.782,62.772,81.218z"/>
	<path fill="#F2D159" d="M109.704,106.706c-5.076,0.149-14.787-0.298-15.453,8.073c-0.528,6.666,2.523,14.274,3.452,20.849
		c1.144,8.089,2.768,12.726,8.957,16.339c5.335,3.114,12.519,4.858,18.212,2.844c3.981-1.407,10.674-5.377,12.804-10.215
		c2.858-6.487,0.852-16.733-1.929-22.774c-6.968-15.155-20.316-17.394-32.707-14.788"/>
</g>
<g>
	<path fill="#2F00DD" d="M137.091,182.932c12.367,3.76,25.722,6.359,33.397-3.312c5.896-7.424,4.277-18.359,17.521-19.489
		c9.385-0.801,17.412-5.701,18.903-13.623c2.289-12.13-18.907-12.102-27.026-17.063c-5.666-3.462-12.406-18.739-21.689-15.558
		c-3.382,1.159-3.089,6.156-4.152,8.522c-3.141,6.966-6.519,10.11-12.2,15.765c-7.379,7.341-5.65,13.415-6.797,22.562
		C134.456,165.488,122.066,180.469,137.091,182.932"/>
	<path fill="#F44B86" d="M168.612,139.833c10.983,7.243,26.155,10.139,36.327,1.695c14.318-11.881,1.829-24.604,6.474-38.863
		c3.751-11.517,9.482-20.748,8.67-33.414c-1.192-18.657-14.751-14.943-30.712-21.037c-10.705-4.086-21.504-11.719-31.758-4.587
		c-10.19,7.088-11.835,20.344-13.437,30.849c-1.77,11.602-5.814,27.191-0.187,39.044
		C149.577,125.299,158.703,133.305,168.612,139.833"/>
	<path fill="#DD61B0" d="M92.818,154.823c-8.656-6.829-17.185-17.388-13.454-26.754c3.777-9.485,30.31-18.434,26.365-30.231
		c-3.057-9.149-16.383-17.067-8.403-26.752c8.24-9.996,37.703-14.413,52.559-14.851c19.808-0.579,7.147,15.065,0.929,20.963
		c-10.13,9.605-28.121,16.704-29.252,31.094c-1.27,16.086,14.497,31.06,5.576,46.8C120.181,167.366,102.717,167.143,92.818,154.823z
		"/>
	<path fill="#2D36E0" d="M94.181,172.198c13.478,5.455,30.714,10.678,44.913,7.947c27.284-5.248,12.472-31.158,2.153-44.82
		c-16.47-21.812,23.389-40.489,40.707-48.881c16.567-8.028,39.178-27.236,9.187-40.264c-31.792-13.812-59.058,14.961-69.245,33.898
		c-9.613,17.867-4.428,33.679,6.819,51.555c12.912,20.514-9.987,6.898-22.222,4.801C86.73,133.049,77.803,163.275,94.181,172.198z"
		/>
	<path fill="#F21C87" d="M122.82,131.896c-0.608,4.407-2.39,12.705,4.58,14.774c5.555,1.651,12.419,0.381,18.106,0.754
		c6.998,0.464,11.149-0.105,15.094-4.795c3.402-4.044,5.914-9.925,5.037-15.2c-0.615-3.686-2.998-10.165-6.775-12.869
		c-5.062-3.623-14.008-3.732-19.513-2.415c-13.801,3.296-17.622,14.404-17.213,25.559"/>
</g>
</svg>
